<svg aria-hidden="true" style="position: absolute; width: 0; height: 0; overflow: hidden;" version="1.1"
     xmlns="http://www.w3.org/2000/svg"
     xmlns:xlink="http://www.w3.org/1999/xlink">
    <defs>
        <symbol id="icon-cancel" viewBox="0 0 32 32">
            <title>cancel</title>
            <path stroke-linejoin="round" stroke-linecap="round" stroke-miterlimit="4" stroke-width="1.6" d="M30.4 3.269l-1.67-1.669-12.73 12.731-12.73-12.731-1.67 1.669 12.73 12.731-12.73 12.73 1.67 1.669 12.73-12.73 12.73 12.73 1.67-1.669-12.731-12.73 12.731-12.731z"></path>
        </symbol>
        <symbol id="icon-delete" viewBox="0 0 32 32">
            <title>delete</title>
            <path d="M28.799 2.629c1.136 1.136 1.136 2.978 0 4.114l-22.627 22.627c-1.136 1.136-2.978 1.136-4.114 0s-1.136-2.978 0-4.114l22.627-22.627c1.136-1.136 2.978-1.136 4.114 0z"></path>
            <path d="M2.057 2.629c1.136-1.136 2.978-1.136 4.114 0l22.627 22.627c1.136 1.136 1.136 2.978 0 4.114s-2.978 1.136-4.114 0l-22.627-22.627c-1.136-1.136-1.136-2.978 0-4.114z"></path>
        </symbol>

        <symbol id="icon-pencil" viewBox="0 0 32 32">
            <title>pencil</title>
            <path d="M27.237 0c-1.219 0-2.438 0.464-3.368 1.395l-1.974 1.974 6.737 6.737 1.974-1.974c1.859-1.859 1.859-4.876 0-6.737-0.931-0.931-2.15-1.395-3.368-1.395zM19.369 5.895l-16 16c0 0 1.693 0.008 2.526 0.842s0.816 2.5 0.816 2.5c0 0 1.717 0.033 2.553 0.868s0.842 2.526 0.842 2.526l16-16-6.737-6.737zM1.129 25.263l-1.105 5.901c-0.089 0.482 0.331 0.902 0.813 0.812l5.901-1.105-5.609-5.609z"></path>
        </symbol>
    </defs>
</svg>
